@startuml Spotify
class Artist {
    * id : VARCHAR
    --
    * name : VARCHAR
    instagram : VARCHAR
    facebook : VARCHAR
    twitter : VARCHAR
    wikipedia : VARCHAR
    bio : TEXT
}
class Album {
    * id : VARCHAR
    --
    * title : VARCHAR
    * release : YEAR
    * image : VARCHAR

}
class Song {
    * id : VARCHAR
    --
    * album_id : VARCHAR
    * title : VARCHAR
    * duration : INT
}
class PlaylistCategory {
    * id : VARCHAR
    --
    * name : VARCHAR
    * image : VARCHAR
    * icon : VARCHAR
}
class Playlist {
    * id : VARCHAR
    --
    * name : VARCHAR
    description : TEXT
    image : VARCHAR
    category_id : VARCHAR
    * user_id : VARCHAR
}
class PodcastCategory {
    * id : VARCHAR
    --
    * name : VARCHAR
    * image : VARCHAR
    * icon : VARCHAR
}
class Podcast {
    * id : VARCHAR
    --
    * name : VARCHAR
    about : TEXT
    image : VARCHAR
    category_id : VARCHAR
    * user_id : VARCHAR
}
class Episode {
    * id : VARCHAR
    --
    * podcast_id : VARCHAR
    * title : VARCHAR
    description : TEXT
    published_at : DATE
    duration : INT
}
class User {
    * id : VARCHAR 
    --
    * email : VARCHAR
    * name : VARCHAR
    birthday : DAY

}
class Concert {
    * id : VARCHAR
    --
    * event_at : DATETIME
    * location : VARCHAR
    * url : VARCHAR
    lon : DOUBLE
    lat : DOUBLE
}

' Artist Relation
Artist }|--|{ Album

' Album Relation

' Song Relation
Song }|--|| Album
Song }|--|{ Artist

' Playlist Relation
Playlist }|--o| PlaylistCategory
Playlist }o--|| User
Playlist }o--o{ Song

' Podcast Relation
PodcastCategory |o--|{ Podcast
User ||--o{ Podcast

@enduml
